<svg width="720" height="480" viewBox="0 0 720 480" fill="none" xmlns="http://www.w3.org/2000/svg">
<g clip-path="url(#clip0)">
<rect width="720" height="480" fill="#323232"/>
<path d="M290.307 203.043C369.883 286.453 381.451 398.909 381.432 440.236C381.43 450.32 374.021 455.828 363.908 455.801L174.724 455.801C166.709 455.866 160.166 449.677 159.764 441.667C158.749 421.423 153.845 384.788 124.837 355.78C95.8294 326.772 61.8732 321.898 41.6592 320.853C33.6492 320.452 27.3889 313.679 27.3889 305.893L27.389 116.651C27.3889 106.846 32.6008 99.159 42.7143 99.1277C84.9446 99.1274 198.387 111.006 282.876 195.495L290.307 203.043Z" fill="#FAFAFA"/>
</g>
<defs>
<clipPath id="clip0">
<rect width="720" height="480" fill="white"/>
</clipPath>
</defs>
</svg>
