<svg width="720" height="480" viewBox="0 0 720 480" fill="none" xmlns="http://www.w3.org/2000/svg">
<rect width="720" height="480" fill="#FAFAFA"/>
<path d="M502.625 196C502.625 210.375 500.854 222.979 497.312 233.812C493.771 244.646 488.667 253.812 482 261.312C475.542 268.604 467.625 274.125 458.25 277.875C448.875 281.417 438.458 283.188 427 283.188C411.375 283.188 397.104 280.583 384.188 275.375C371.479 270.167 359.5 264.438 348.25 258.188C337.208 251.938 326.583 246.208 316.375 241C306.375 235.792 296.271 233.188 286.062 233.188C279.188 233.188 272.625 234.646 266.375 237.562C260.125 240.271 254.5 243.917 249.5 248.5C244.5 253.083 240.333 258.396 237 264.438C233.667 270.479 231.375 276.729 230.125 283.188H217C217 254.646 224.188 232.979 238.562 218.188C252.938 203.396 273.146 196 299.188 196C307.521 196 315.854 197.25 324.188 199.75C332.521 202.25 340.854 205.375 349.188 209.125C357.729 212.667 365.958 216.625 373.875 221C382 225.167 389.812 229.125 397.312 232.875C405.021 236.417 412.312 239.438 419.188 241.938C426.062 244.438 432.417 245.688 438.25 245.688C445.958 245.688 452.521 244.333 457.938 241.625C463.562 238.917 468.25 235.271 472 230.688C475.958 226.104 479.292 220.792 482 214.75C484.708 208.708 487.208 202.458 489.5 196H502.625Z" fill="#C23729"/>
</svg>
