<svg width="1080" height="450" viewBox="0 0 1080 450" fill="none" xmlns="http://www.w3.org/2000/svg">
<rect width="1080" height="450" fill="black"/>
<path d="M23.4 204.925H27.675L45.675 226H49.8L30.525 203.425L47.25 185.5H42.975L27.675 201.775H23.4V172H20.25V226H23.4V204.925ZM84.3797 185.5V207.775C84.3797 209.5 84.2297 211.15 83.8547 212.8C83.3297 215.8 81.9797 218.65 79.8047 220.6C77.7047 222.625 74.7797 223.675 71.7797 223.825C68.7047 223.975 65.7047 223.3 63.2297 221.725C58.1297 218.275 57.4547 212.5 57.4547 205.225V185.5H54.3047V205.225C54.1547 212.875 55.3547 220.075 61.5047 224.275C64.6547 226.375 68.4047 227.125 71.9297 226.825C75.5297 226.675 79.2047 225.4 81.9047 222.85C82.9547 221.8 83.8547 220.675 84.6047 219.4V226H87.5297V185.5H84.3797ZM114.591 184.375C110.691 184.375 106.716 185.65 103.791 188.35C102.591 189.475 101.691 190.525 100.941 191.725V185.5H98.0156V226H101.166V204.475C101.241 198.775 101.691 194.2 105.741 190.6C107.916 188.5 111.216 187.375 114.591 187.375C116.316 187.375 117.891 187.6 119.391 188.125V184.975C117.891 184.525 116.316 184.375 114.591 184.375ZM156.516 196.075C155.616 192.4 152.091 188.275 148.266 186.325C145.641 184.975 142.641 184.375 139.791 184.375C136.941 184.3 134.016 184.675 131.241 185.95C127.791 187.525 125.016 190.975 125.016 194.65C125.016 197.2 125.916 199.9 128.241 201.775C130.716 203.8 133.491 204.475 136.116 205.225C139.266 206.125 141.666 206.8 143.541 207.4C147.741 208.6 149.091 209.275 150.591 210.55C152.241 211.9 153.066 213.7 153.066 215.575C153.066 218.05 151.866 220.3 149.841 221.65C147.516 223.225 143.616 223.9 140.166 223.9C136.266 223.9 132.141 222.775 129.441 219.775C127.566 217.6 126.516 214.75 125.991 211.75L122.766 212.575C123.516 215.725 124.416 219.025 127.041 221.95C130.266 225.475 135.141 227.05 140.316 227.05C144.291 227.05 148.566 226.375 151.641 224.35C154.566 222.55 156.441 218.875 156.441 215.8C156.441 212.875 155.316 210.325 152.616 208.15C150.291 206.2 147.441 205.075 144.816 204.4C140.841 203.35 138.066 202.6 136.116 202C132.891 201.1 131.691 200.425 130.341 199.3C128.766 198.025 128.391 196.45 128.391 194.65C128.391 192.175 130.266 190 132.591 188.875C134.691 187.9 137.241 187.45 139.716 187.525C142.191 187.525 144.741 188.05 146.841 189.175C149.916 190.75 152.091 193.6 153.291 196.825L156.516 196.075ZM167.892 204.925H172.167L190.167 226H194.292L175.017 203.425L191.742 185.5H187.467L172.167 201.775H167.892V172H164.742V226H167.892V204.925Z" fill="#F7F7F7"/>
<path d="M20.8167 406.621H21.8958C21.8958 405.921 22.2313 405.265 22.7271 404.842C23.1354 404.506 23.6458 404.317 24.2 404.317C24.7833 404.317 25.3229 404.521 25.7313 404.9C26.2125 405.323 26.5042 405.95 26.5042 406.621C26.5042 407.365 26.3146 408.006 25.4979 408.721L20.7438 412.965L20.7292 414H27.4667V412.965H22.3917L26.1104 409.61C27.1313 408.706 27.5979 407.933 27.5979 406.635C27.5979 405.687 27.1896 404.798 26.5333 404.185C25.9354 403.587 25.1188 403.281 24.2292 403.281C23.4125 403.281 22.6104 403.529 21.9979 404.054C21.2688 404.667 20.8021 405.615 20.8167 406.621ZM32.7741 414.219C31.797 414.219 30.8491 413.825 30.2074 413.096C29.6095 412.41 29.347 411.652 29.347 410.69V406.796C29.347 405.833 29.6241 405.046 30.2512 404.346C30.8783 403.675 31.7824 403.267 32.7741 403.281C33.7366 403.267 34.6553 403.646 35.297 404.346C35.9241 405.017 36.2012 405.819 36.2012 406.796V410.69C36.2012 411.637 35.9387 412.425 35.3262 413.11C34.6991 413.81 33.7803 414.219 32.7741 414.219ZM32.7741 404.317C31.9866 404.302 31.2428 404.725 30.8199 405.352C30.5574 405.76 30.4262 406.242 30.4262 406.796V410.69C30.4262 411.215 30.5283 411.71 30.8199 412.133C31.2428 412.775 31.972 413.183 32.7741 413.183C33.5762 413.183 34.3053 412.775 34.7283 412.119C35.0199 411.71 35.122 411.258 35.122 410.69V406.796C35.122 406.256 35.0053 405.804 34.7283 405.367C34.3053 404.725 33.5762 404.302 32.7741 404.317ZM47.3018 406.14L44.7497 412.848L41.9352 406.125H40.8268L44.2393 414.219C43.7143 415.604 43.5102 416.071 43.2039 416.304C42.9852 416.465 42.6935 416.494 42.4018 416.479L42.1393 416.45V417.485L42.3435 417.5C42.8539 417.5 43.3206 417.456 43.7143 417.165C44.1372 416.858 44.4872 416.333 44.7789 415.546L48.3956 406.14H47.3018ZM49.9514 410.412H56.2806C56.3389 409.187 56.1056 408.05 55.4202 407.175C54.7202 406.329 53.6993 405.906 52.5764 405.906C51.4389 405.906 50.4181 406.329 49.7327 407.175C49.0764 408.006 48.8431 409.056 48.8431 410.092C48.8431 411.083 49.0764 412.104 49.7327 412.935C50.3889 413.781 51.4827 414.219 52.6056 414.219C54.0639 414.219 55.3181 413.577 56.0181 412.25L55.2014 411.725C54.5889 412.775 53.6848 413.242 52.5764 413.242C51.7743 413.242 51.0014 412.921 50.5493 412.308C50.1556 411.783 49.9952 411.112 49.9514 410.412ZM52.5764 406.883C53.3639 406.869 54.1223 407.19 54.5743 407.802C54.9098 408.225 55.0848 408.794 55.1577 409.421H49.966C50.0389 408.823 50.2139 408.254 50.5493 407.802C51.0014 407.19 51.7743 406.869 52.5764 406.883ZM63.956 414V409.144C63.956 408.225 63.7372 407.262 63.0081 406.65C62.4977 406.198 61.7393 405.906 60.9518 405.906C59.6977 405.906 58.6331 406.271 57.8164 407.248L58.5164 407.977C59.2164 407.117 59.9893 406.942 60.8206 406.942C61.9872 406.942 62.8477 407.525 62.8622 408.794C61.1852 409.056 59.6539 409.173 58.6914 409.669C57.7143 410.165 57.306 410.85 57.306 411.842C57.306 413.3 58.3852 414.219 59.8872 414.219C61.2435 414.219 62.2935 413.81 62.9935 412.731V414H63.956ZM62.5706 411.915C62.1039 412.804 61.1997 413.256 60.0622 413.256C59.0852 413.256 58.3852 412.658 58.3852 411.74C58.3852 410.894 59.1727 410.369 60.1643 410.165C60.6602 410.048 61.5789 409.902 62.8914 409.698C62.8914 410.719 62.8768 411.317 62.5706 411.915ZM69.3217 405.906C68.6655 405.921 67.9801 406.125 67.4697 406.562C67.1926 406.796 66.9738 407.029 66.8134 407.306V406.125H65.8509V414H66.9301V410.252C66.9301 409.115 66.9447 408.21 67.6884 407.51C68.0676 407.146 68.6217 406.927 69.2488 406.912C69.6717 406.898 70.0509 406.956 70.3863 407.087V406.052C70.0363 405.95 69.6863 405.906 69.3217 405.906ZM77.6816 408.181C77.4629 407.437 76.8066 406.665 76.0629 406.285C75.5379 406.023 74.9546 405.906 74.4004 405.906C73.8462 405.892 73.2775 405.95 72.7233 406.212C71.9941 406.533 71.44 407.233 71.44 408.035C71.44 408.487 71.5858 409.027 71.9796 409.377C72.4025 409.771 72.9421 409.96 73.4233 410.121C73.9191 410.267 74.3129 410.369 75.0566 410.587C75.6691 410.762 75.9462 410.879 76.2233 411.083C76.5296 411.287 76.6754 411.608 76.6754 411.9C76.6754 412.294 76.4858 412.629 76.1504 412.848C75.7712 413.11 75.0858 413.227 74.5462 413.227C73.8608 413.227 73.1171 413.037 72.6358 412.512C72.3441 412.162 72.1546 411.623 72.0816 411.156L71.0462 411.419C71.2358 412.104 71.3671 412.629 71.8775 413.198C72.5483 413.927 73.4962 414.204 74.5462 414.204C75.3191 414.204 76.0775 414.088 76.7046 413.679C77.3171 413.315 77.6962 412.585 77.6962 411.915C77.6962 411.287 77.4337 410.748 76.8796 410.31C76.4421 409.96 75.9025 409.742 75.3629 409.596C74.6629 409.406 74.1671 409.275 73.7587 409.158C73.2629 409.012 73.0296 408.91 72.8254 408.75C72.5337 408.546 72.4608 408.298 72.4608 408.021C72.4608 407.627 72.7816 407.277 73.1462 407.102C73.4962 406.956 73.9191 406.869 74.3566 406.883C74.7796 406.883 75.2462 406.985 75.5962 407.19C76.1066 407.452 76.4566 407.904 76.6462 408.444L77.6816 408.181Z" fill="white"/>
<path d="M29.8292 25.125L27.9625 31.2354L26.0813 25.125H25.1042L23.2375 31.2354L21.3708 25.125H20.2917L22.6979 33H23.6313L25.6 26.7292L27.5104 33H28.4875L30.8938 25.125H29.8292ZM32.5882 29.4125H38.9173C38.9757 28.1875 38.7423 27.05 38.0569 26.175C37.3569 25.3292 36.3361 24.9062 35.2132 24.9062C34.0757 24.9062 33.0548 25.3292 32.3694 26.175C31.7132 27.0062 31.4798 28.0562 31.4798 29.0917C31.4798 30.0833 31.7132 31.1042 32.3694 31.9354C33.0257 32.7812 34.1194 33.2188 35.2423 33.2188C36.7007 33.2188 37.9548 32.5771 38.6548 31.25L37.8382 30.725C37.2257 31.775 36.3215 32.2417 35.2132 32.2417C34.4111 32.2417 33.6382 31.9208 33.1861 31.3083C32.7923 30.7833 32.6319 30.1125 32.5882 29.4125ZM35.2132 25.8833C36.0007 25.8687 36.759 26.1896 37.2111 26.8021C37.5465 27.225 37.7215 27.7937 37.7944 28.4208H32.6027C32.6757 27.8229 32.8507 27.2542 33.1861 26.8021C33.6382 26.1896 34.4111 25.8687 35.2132 25.8833ZM46.9473 26.175C46.3202 25.3583 45.3285 24.9062 44.2639 24.9062C43.2285 24.9062 42.2514 25.3292 41.6098 26.0437V22.5H40.5306V33H41.4931V31.8917C42.1056 32.7667 43.0827 33.2188 44.2202 33.2188C45.2993 33.2188 46.291 32.7812 46.9473 31.95C47.6035 31.1042 47.8077 30.0687 47.8077 29.0479C47.8077 28.0417 47.5743 26.9771 46.9473 26.175ZM46.0868 31.2792C45.6348 31.9062 44.8764 32.2271 44.1035 32.2271C43.3306 32.2271 42.5868 31.9208 42.1348 31.3375C41.6681 30.7542 41.4931 29.8937 41.4931 29.0479C41.4931 28.2167 41.6681 27.3708 42.1348 26.7729C42.5868 26.1896 43.316 25.8979 44.0889 25.8979C44.891 25.8979 45.6202 26.2042 46.0723 26.8312C46.5098 27.4146 46.6702 28.2312 46.6702 29.0479C46.6702 29.8792 46.5243 30.6958 46.0868 31.2792Z" fill="white"/>
<path d="M1080 180H560V414H1080" stroke="white"/>
</svg>
