<svg width="1080" height="450" viewBox="0 0 1080 450" fill="none" xmlns="http://www.w3.org/2000/svg">
<rect width="1080" height="450" fill="black"/>
<path d="M26.55 225.022H32.4281L57.1781 254H62.85L36.3469 222.959L59.3438 198.312H53.4656L32.4281 220.691H26.55V179.75H22.2188V254H26.55V225.022ZM110.397 198.312V228.941C110.397 231.312 110.191 233.581 109.675 235.85C108.953 239.975 107.097 243.894 104.106 246.575C101.219 249.359 97.1971 250.803 93.0721 251.009C88.8439 251.216 84.7189 250.287 81.3158 248.122C74.3033 243.378 73.3752 235.437 73.3752 225.434V198.312H69.0439V225.434C68.8377 235.953 70.4877 245.853 78.9439 251.628C83.2752 254.516 88.4314 255.547 93.2783 255.134C98.2283 254.928 103.281 253.175 106.994 249.669C108.438 248.225 109.675 246.678 110.706 244.925V254H114.728V198.312H110.397ZM151.937 196.766C146.575 196.766 141.109 198.519 137.087 202.231C135.437 203.778 134.2 205.222 133.168 206.872V198.312H129.146V254H133.478V224.403C133.581 216.566 134.2 210.275 139.768 205.325C142.759 202.437 147.296 200.891 151.937 200.891C154.309 200.891 156.475 201.2 158.537 201.922V197.591C156.475 196.972 154.309 196.766 151.937 196.766ZM209.584 212.853C208.346 207.8 203.5 202.128 198.24 199.447C194.631 197.591 190.506 196.766 186.587 196.766C182.668 196.662 178.646 197.178 174.831 198.931C170.087 201.097 166.271 205.841 166.271 210.894C166.271 214.4 167.509 218.112 170.706 220.691C174.109 223.475 177.925 224.403 181.534 225.434C185.865 226.672 189.165 227.6 191.743 228.425C197.518 230.075 199.375 231.003 201.437 232.756C203.706 234.612 204.84 237.087 204.84 239.666C204.84 243.069 203.19 246.162 200.406 248.019C197.209 250.184 191.846 251.112 187.103 251.112C181.74 251.112 176.068 249.566 172.356 245.441C169.778 242.45 168.334 238.531 167.612 234.406L163.178 235.541C164.209 239.872 165.446 244.409 169.056 248.431C173.49 253.278 180.193 255.444 187.309 255.444C192.775 255.444 198.653 254.516 202.881 251.731C206.903 249.256 209.481 244.203 209.481 239.975C209.481 235.953 207.934 232.447 204.221 229.456C201.025 226.775 197.106 225.228 193.496 224.3C188.031 222.856 184.215 221.825 181.534 221C177.1 219.762 175.45 218.834 173.593 217.287C171.428 215.534 170.912 213.369 170.912 210.894C170.912 207.491 173.49 204.5 176.687 202.953C179.575 201.612 183.081 200.994 186.484 201.097C189.887 201.097 193.393 201.819 196.281 203.366C200.509 205.531 203.5 209.45 205.15 213.884L209.584 212.853ZM225.227 225.022H231.105L255.855 254H261.527L235.024 222.959L258.021 198.312H252.142L231.105 220.691H225.227V179.75H220.896V254H225.227V225.022Z" fill="#F7F7F7"/>
<path d="M20.8167 406.621H21.8958C21.8958 405.921 22.2313 405.265 22.7271 404.842C23.1354 404.506 23.6458 404.317 24.2 404.317C24.7833 404.317 25.3229 404.521 25.7313 404.9C26.2125 405.323 26.5042 405.95 26.5042 406.621C26.5042 407.365 26.3146 408.006 25.4979 408.721L20.7438 412.965L20.7292 414H27.4667V412.965H22.3917L26.1104 409.61C27.1313 408.706 27.5979 407.933 27.5979 406.635C27.5979 405.687 27.1896 404.798 26.5333 404.185C25.9354 403.587 25.1188 403.281 24.2292 403.281C23.4125 403.281 22.6104 403.529 21.9979 404.054C21.2688 404.667 20.8021 405.615 20.8167 406.621ZM32.7741 414.219C31.797 414.219 30.8491 413.825 30.2074 413.096C29.6095 412.41 29.347 411.652 29.347 410.69V406.796C29.347 405.833 29.6241 405.046 30.2512 404.346C30.8783 403.675 31.7824 403.267 32.7741 403.281C33.7366 403.267 34.6553 403.646 35.297 404.346C35.9241 405.017 36.2012 405.819 36.2012 406.796V410.69C36.2012 411.637 35.9387 412.425 35.3262 413.11C34.6991 413.81 33.7803 414.219 32.7741 414.219ZM32.7741 404.317C31.9866 404.302 31.2428 404.725 30.8199 405.352C30.5574 405.76 30.4262 406.242 30.4262 406.796V410.69C30.4262 411.215 30.5283 411.71 30.8199 412.133C31.2428 412.775 31.972 413.183 32.7741 413.183C33.5762 413.183 34.3053 412.775 34.7283 412.119C35.0199 411.71 35.122 411.258 35.122 410.69V406.796C35.122 406.256 35.0053 405.804 34.7283 405.367C34.3053 404.725 33.5762 404.302 32.7741 404.317ZM47.3018 406.14L44.7497 412.848L41.9352 406.125H40.8268L44.2393 414.219C43.7143 415.604 43.5102 416.071 43.2039 416.304C42.9852 416.465 42.6935 416.494 42.4018 416.479L42.1393 416.45V417.485L42.3435 417.5C42.8539 417.5 43.3206 417.456 43.7143 417.165C44.1372 416.858 44.4872 416.333 44.7789 415.546L48.3956 406.14H47.3018ZM49.9514 410.412H56.2806C56.3389 409.187 56.1056 408.05 55.4202 407.175C54.7202 406.329 53.6993 405.906 52.5764 405.906C51.4389 405.906 50.4181 406.329 49.7327 407.175C49.0764 408.006 48.8431 409.056 48.8431 410.092C48.8431 411.083 49.0764 412.104 49.7327 412.935C50.3889 413.781 51.4827 414.219 52.6056 414.219C54.0639 414.219 55.3181 413.577 56.0181 412.25L55.2014 411.725C54.5889 412.775 53.6848 413.242 52.5764 413.242C51.7743 413.242 51.0014 412.921 50.5493 412.308C50.1556 411.783 49.9952 411.112 49.9514 410.412ZM52.5764 406.883C53.3639 406.869 54.1223 407.19 54.5743 407.802C54.9098 408.225 55.0848 408.794 55.1577 409.421H49.966C50.0389 408.823 50.2139 408.254 50.5493 407.802C51.0014 407.19 51.7743 406.869 52.5764 406.883ZM63.956 414V409.144C63.956 408.225 63.7372 407.262 63.0081 406.65C62.4977 406.198 61.7393 405.906 60.9518 405.906C59.6977 405.906 58.6331 406.271 57.8164 407.248L58.5164 407.977C59.2164 407.117 59.9893 406.942 60.8206 406.942C61.9872 406.942 62.8477 407.525 62.8622 408.794C61.1852 409.056 59.6539 409.173 58.6914 409.669C57.7143 410.165 57.306 410.85 57.306 411.842C57.306 413.3 58.3852 414.219 59.8872 414.219C61.2435 414.219 62.2935 413.81 62.9935 412.731V414H63.956ZM62.5706 411.915C62.1039 412.804 61.1997 413.256 60.0622 413.256C59.0852 413.256 58.3852 412.658 58.3852 411.74C58.3852 410.894 59.1727 410.369 60.1643 410.165C60.6602 410.048 61.5789 409.902 62.8914 409.698C62.8914 410.719 62.8768 411.317 62.5706 411.915ZM69.3217 405.906C68.6655 405.921 67.9801 406.125 67.4697 406.562C67.1926 406.796 66.9738 407.029 66.8134 407.306V406.125H65.8509V414H66.9301V410.252C66.9301 409.115 66.9447 408.21 67.6884 407.51C68.0676 407.146 68.6217 406.927 69.2488 406.912C69.6717 406.898 70.0509 406.956 70.3863 407.087V406.052C70.0363 405.95 69.6863 405.906 69.3217 405.906ZM77.6816 408.181C77.4629 407.437 76.8066 406.665 76.0629 406.285C75.5379 406.023 74.9546 405.906 74.4004 405.906C73.8462 405.892 73.2775 405.95 72.7233 406.212C71.9941 406.533 71.44 407.233 71.44 408.035C71.44 408.487 71.5858 409.027 71.9796 409.377C72.4025 409.771 72.9421 409.96 73.4233 410.121C73.9191 410.267 74.3129 410.369 75.0566 410.587C75.6691 410.762 75.9462 410.879 76.2233 411.083C76.5296 411.287 76.6754 411.608 76.6754 411.9C76.6754 412.294 76.4858 412.629 76.1504 412.848C75.7712 413.11 75.0858 413.227 74.5462 413.227C73.8608 413.227 73.1171 413.037 72.6358 412.512C72.3441 412.162 72.1546 411.623 72.0816 411.156L71.0462 411.419C71.2358 412.104 71.3671 412.629 71.8775 413.198C72.5483 413.927 73.4962 414.204 74.5462 414.204C75.3191 414.204 76.0775 414.088 76.7046 413.679C77.3171 413.315 77.6962 412.585 77.6962 411.915C77.6962 411.287 77.4337 410.748 76.8796 410.31C76.4421 409.96 75.9025 409.742 75.3629 409.596C74.6629 409.406 74.1671 409.275 73.7587 409.158C73.2629 409.012 73.0296 408.91 72.8254 408.75C72.5337 408.546 72.4608 408.298 72.4608 408.021C72.4608 407.627 72.7816 407.277 73.1462 407.102C73.4962 406.956 73.9191 406.869 74.3566 406.883C74.7796 406.883 75.2462 406.985 75.5962 407.19C76.1066 407.452 76.4566 407.904 76.6462 408.444L77.6816 408.181Z" fill="white"/>
<path d="M1080 180H560V414H1080" stroke="white"/>
</svg>
