<svg width="1080" height="450" viewBox="0 0 1080 450" fill="none" xmlns="http://www.w3.org/2000/svg">
<mask id="mask0" mask-type="alpha" maskUnits="userSpaceOnUse" x="0" y="0" width="1080" height="450">
<rect width="1080" height="450" rx="225" fill="black"/>
</mask>
<g mask="url(#mask0)">
<rect x="740.87" y="278" width="342" height="212" transform="rotate(15 740.87 278)" fill="black"/>
<rect x="1" y="1" width="1078" height="448" rx="224" stroke="black" stroke-width="2"/>
<path d="M276.816 118.778L278.953 119.35C279.467 117.43 280.793 115.961 282.48 115.171C283.753 114.619 285.239 114.435 286.724 114.833C288.246 115.24 289.476 116.152 290.32 117.349C291.36 118.831 291.737 120.757 291.232 122.64C290.698 124.633 289.781 126.173 287.166 127.53L272.248 135.101L271.658 137.156L288.139 141.572L288.692 139.508L275.435 135.956L287.987 129.535C290.914 128.029 292.498 126.318 293.333 123.203C293.983 120.776 293.489 118.276 292.194 116.298C291.094 114.606 289.405 113.377 287.304 112.814C285.312 112.28 283.254 112.427 281.438 113.261C279.256 114.307 277.485 116.278 276.816 118.778ZM306.016 146.945C303.662 146.314 301.678 144.734 300.649 142.634C299.654 140.698 299.434 138.62 300.026 136.411L302.851 125.87C303.452 123.624 304.737 121.872 306.686 120.686C308.624 119.536 310.977 119.157 313.296 119.778C315.614 120.4 317.508 121.878 318.603 123.879C319.67 125.835 319.907 127.994 319.296 130.276L316.471 140.817C315.879 143.027 314.64 144.752 312.81 145.931C310.852 147.154 308.407 147.586 306.016 146.945ZM312.752 121.807C310.688 121.254 308.513 121.836 306.999 123.138C306.013 123.922 305.32 125.057 304.952 126.433L302.127 136.974C301.787 138.241 301.783 139.56 302.226 140.805C302.867 142.762 304.459 144.354 306.57 144.88C308.661 145.48 310.836 144.898 312.405 143.532C313.375 142.666 314.011 141.594 314.37 140.254L317.195 129.714C317.554 128.373 317.502 127.117 317.095 125.882C316.409 123.951 314.853 122.37 312.752 121.807ZM359.87 132.84L349.156 143.557L345.236 128.919L342.809 128.269L347.465 145.667L344.515 156.678L346.615 157.241L349.566 146.23L362.297 133.491L359.87 132.84ZM385.339 141.839L385.882 139.81L370.053 135.569L363.065 161.649L378.894 165.89L379.437 163.862L365.709 160.183L368.388 150.186L379.943 153.282L380.486 151.254L368.932 148.157L371.61 138.16L385.339 141.839ZM406.226 173.214L408.399 173.796L406.151 145.241L403.579 144.552L387.354 168.157L389.564 168.749L392.939 163.83L405.762 167.266L406.226 173.214ZM394.152 162.059L404.148 147.5L405.562 165.116L394.152 162.059ZM435.806 181.14L433.419 168.892C434.668 168.722 435.867 168.306 436.87 167.604C438.48 166.521 439.782 164.851 440.296 162.931C440.813 160.857 440.534 158.569 439.437 156.722C438.863 155.676 438.024 154.752 437.08 154.072C436.262 153.503 435.368 153.07 434.427 152.818L423.85 149.984L416.862 176.064L418.963 176.626L421.69 166.448L430.166 168.719C430.492 168.807 430.791 168.848 431.127 168.899L433.343 180.48L435.806 181.14ZM422.233 164.42L425.407 152.575L433.883 154.846C435.368 155.244 436.705 156.34 437.474 157.672C438.27 159.05 438.478 160.736 438.087 162.339C437.754 163.726 436.852 164.92 435.701 165.738C434.265 166.751 432.376 167.137 430.709 166.691L422.233 164.42ZM468.99 169.067C468.771 166.407 467.82 164.017 466.095 162.196C464.826 160.847 462.95 159.878 461.067 159.373C459.4 158.927 457.603 158.678 455.777 159.121C453.457 159.664 451.353 161.43 450.752 163.675C450.344 165.197 450.421 167.081 451.342 168.57C452.415 170.216 453.963 171.252 455.483 172.242L459.85 174.926C461.218 175.759 462.331 176.678 463.011 177.908C463.621 178.964 463.81 180.141 463.49 181.336C463.111 182.749 462.124 184.115 460.577 184.671C459.021 185.264 456.794 185.172 454.947 184.677C452.411 183.997 450.125 182.531 449.176 179.986C448.635 178.676 448.542 177.137 448.641 175.611L446.384 175.627C446.31 177.354 446.489 179.149 447.161 180.843C448.329 183.874 450.998 185.793 454.331 186.686C456.685 187.317 459.265 187.542 461.353 186.704C463.421 185.938 465.117 184.102 465.68 182.001C466.182 180.272 465.851 178.32 464.94 176.794C464.002 175.223 462.539 174.016 460.937 173.043L456.597 170.405C455.238 169.536 453.944 168.568 453.281 167.42C452.751 166.502 452.66 165.39 452.932 164.376C453.34 162.855 454.689 161.586 456.306 161.204C457.594 160.889 459.11 161.023 460.559 161.412C462.044 161.81 463.558 162.681 464.523 163.716C465.917 165.177 466.577 167.062 466.77 169.093L468.99 169.067Z" fill="black"/>
<path d="M763.427 326.721L754.524 309.816L768.423 300.108L765.742 299.389L752.903 308.333L749.86 307.518L752.956 295.963L750.855 295.4L743.867 321.48L745.968 322.043L749.307 309.583L752.349 310.398L760.602 325.964L763.427 326.721ZM798.318 308.118L796.217 307.555L792.14 322.768C791.422 325.449 790.884 327.168 788.664 328.786C786.674 330.272 784.029 330.728 781.638 330.087C779.284 329.456 777.22 327.739 776.24 325.457C775.093 322.782 775.484 321.178 776.202 318.498L780.279 303.284L778.178 302.721L773.675 319.529C773.112 321.629 773.357 324.335 774.261 326.324C775.513 329.183 778.17 331.293 781.114 332.043C784.111 332.885 787.43 332.377 789.945 330.527C791.741 329.184 793.232 327.098 793.814 324.925L798.318 308.118ZM820.547 342.027L818.161 329.779C819.41 329.609 820.608 329.193 821.612 328.491C823.222 327.408 824.523 325.738 825.038 323.819C825.555 321.744 825.275 319.456 824.178 317.609C823.604 316.563 822.765 315.639 821.821 314.959C821.003 314.391 820.11 313.957 819.168 313.705L808.591 310.871L801.603 336.951L803.704 337.514L806.431 327.335L814.907 329.606C815.233 329.694 815.533 329.735 815.868 329.786L818.084 341.367L820.547 342.027ZM806.975 325.307L810.148 313.462L818.624 315.733C820.11 316.131 821.446 317.227 822.215 318.559C823.011 319.937 823.219 321.623 822.828 323.226C822.496 324.613 821.593 325.807 820.442 326.625C819.006 327.638 817.117 328.024 815.451 327.578L806.975 325.307ZM853.731 329.954C853.512 327.294 852.561 324.904 850.836 323.083C849.567 321.734 847.691 320.765 845.808 320.26C844.142 319.814 842.345 319.565 840.518 320.008C838.198 320.551 836.095 322.317 835.493 324.562C835.085 326.084 835.163 327.968 836.084 329.457C837.157 331.103 838.704 332.139 840.224 333.129L844.591 335.813C845.96 336.646 847.072 337.565 847.752 338.795C848.362 339.852 848.551 341.028 848.231 342.224C847.852 343.636 846.865 345.002 845.319 345.558C843.762 346.151 841.535 346.059 839.688 345.564C837.152 344.884 834.866 343.418 833.918 340.873C833.376 339.563 833.283 338.024 833.382 336.498L831.126 336.514C831.051 338.241 831.23 340.036 831.902 341.731C833.07 344.761 835.739 346.68 839.072 347.573C841.426 348.204 844.006 348.429 846.094 347.591C848.163 346.825 849.858 344.989 850.421 342.888C850.923 341.159 850.592 339.207 849.681 337.682C848.743 336.11 847.281 334.903 845.678 333.93L841.338 331.292C839.979 330.423 838.685 329.455 838.022 328.307C837.492 327.389 837.402 326.277 837.673 325.263C838.081 323.742 839.43 322.473 841.047 322.091C842.335 321.776 843.852 321.91 845.301 322.299C846.786 322.697 848.299 323.568 849.264 324.603C850.659 326.064 851.318 327.949 851.511 329.98L853.731 329.954ZM877.031 357.162L868.128 340.256L882.027 330.548L879.347 329.83L866.507 338.774L863.464 337.958L866.56 326.403L864.459 325.84L857.471 351.92L859.572 352.483L862.911 340.023L865.954 340.838L874.206 356.405L877.031 357.162Z" fill="white"/>
<line x1="18.6587" y1="84.2719" x2="1061.86" y2="363.796" stroke="black" stroke-width="2"/>
<line x1="689.787" y1="465.77" x2="819.197" y2="-17.1929" stroke="black" stroke-width="2"/>
</g>
</svg>
