<svg width="520" height="450" viewBox="0 0 520 450" fill="none" xmlns="http://www.w3.org/2000/svg">
<circle cx="225" cy="225" r="225" fill="#739790"/>
<path d="M178.413 242.7H149.763L178.413 208.875V205.5H145.488V208.8H174.138L145.488 242.7V246H178.413V242.7ZM202.966 243.975C198.391 243.975 193.966 242.175 191.341 238.65C188.866 235.35 187.966 231 187.816 226.65H221.416C221.416 220.875 220.366 215.1 217.141 210.825C213.691 206.475 208.666 204.375 202.966 204.375C197.266 204.375 192.241 206.475 188.791 210.825C185.416 215.25 184.441 220.65 184.441 225.75C184.441 230.775 185.416 236.25 188.791 240.6C192.091 244.875 197.341 247.125 202.966 247.125C210.016 247.125 216.766 244.125 220.441 236.325L217.816 234.825C214.591 241.425 208.966 243.975 202.966 243.975ZM191.341 212.85C193.966 209.325 198.391 207.45 202.966 207.525C207.466 207.45 211.891 209.325 214.516 212.85C216.691 215.7 217.666 219.3 217.966 223.5H187.891C188.116 219.6 189.166 215.775 191.341 212.85ZM254.552 207.225C251.402 205.125 247.652 204.375 244.127 204.675C240.527 204.825 236.852 206.1 234.152 208.65C233.102 209.7 232.202 210.825 231.452 212.1V205.5H228.527V246H231.677V223.725C231.677 222 231.827 220.35 232.202 218.7C232.727 215.7 234.077 212.85 236.252 210.9C238.352 208.875 241.277 207.825 244.277 207.675C247.352 207.525 250.352 208.2 252.827 209.775C257.927 213.225 258.602 219 258.602 226.275V246H261.752V226.275C261.902 218.625 260.702 211.425 254.552 207.225ZM272.238 192.75V197.55H275.388V192.75H272.238ZM272.238 205.5V246H275.388V205.5H272.238ZM294.78 208.65H307.53V205.5H294.78V194.25H291.63V205.5H282.105V208.65H291.63V232.575C291.63 236.1 291.555 238.65 292.755 241.275C294.18 244.35 296.88 245.925 300.405 246.375C302.805 246.675 305.13 246.525 307.53 246V243C305.505 243.45 303.03 243.525 300.78 243.3C298.455 243.075 296.43 241.875 295.605 239.85C294.555 237.975 294.78 236.1 294.78 232.575V208.65Z" fill="#F7F7F7"/>
<path d="M211.972 410.5L209.988 411.681V412.892L211.972 411.696V421H213.051V410.5H211.972ZM216.288 419.717C216.945 420.65 218.009 421.219 219.205 421.219C220.211 421.204 221.145 420.854 221.815 420.14C222.515 419.44 222.836 418.55 222.836 417.5V414.015C222.836 412.979 222.559 412.119 221.859 411.39C221.217 410.704 220.27 410.281 219.278 410.296C218.301 410.281 217.382 410.675 216.74 411.346C216.113 411.987 215.734 412.862 215.734 413.796C215.72 414.773 216.099 415.648 216.77 416.304C217.411 416.902 218.272 417.267 219.176 417.267C220.211 417.267 221.145 416.771 221.757 416.012V417.5C221.757 418.171 221.538 418.769 221.145 419.235C220.707 419.819 219.992 420.183 219.205 420.183C218.33 420.183 217.557 419.731 217.105 419.046L216.288 419.717ZM218.899 411.477C219.555 411.375 220.211 411.565 220.707 411.944C221.159 412.294 221.495 412.804 221.597 413.402C221.699 414.015 221.553 414.627 221.232 415.108C220.882 415.633 220.328 415.998 219.672 416.1C219.045 416.202 218.432 416.056 217.936 415.721C217.44 415.371 217.076 414.831 216.974 414.175C216.872 413.577 217.003 412.979 217.309 412.498C217.659 411.958 218.228 411.579 218.899 411.477ZM224.974 413.11C224.974 413.752 225.193 414.394 225.645 414.875C225.806 415.065 225.995 415.24 226.214 415.371C225.908 415.575 225.631 415.808 225.412 416.085C224.931 416.64 224.712 417.383 224.727 418.054C224.741 418.915 225.047 419.819 225.718 420.417C226.36 420.985 227.249 421.219 228.081 421.219C228.897 421.219 229.787 421 230.443 420.417C231.129 419.819 231.435 418.929 231.435 418.054C231.449 417.383 231.245 416.64 230.735 416.085C230.531 415.808 230.254 415.575 229.947 415.371C230.152 415.24 230.341 415.065 230.502 414.875C230.968 414.394 231.172 413.752 231.172 413.11C231.172 412.294 230.881 411.462 230.21 410.952C229.612 410.456 228.824 410.281 228.081 410.281C227.337 410.281 226.549 410.456 225.952 410.952C225.295 411.477 224.989 412.235 224.974 413.11ZM226.112 413.11C226.127 412.585 226.287 412.104 226.652 411.783C227.031 411.462 227.556 411.346 228.081 411.331C228.606 411.331 229.145 411.462 229.495 411.783C229.874 412.104 230.049 412.585 230.035 413.11C230.035 413.621 229.874 414.117 229.51 414.423C229.145 414.744 228.606 414.875 228.081 414.875C227.556 414.875 227.016 414.744 226.652 414.423C226.272 414.117 226.097 413.621 226.112 413.11ZM229.699 419.615C229.291 420.008 228.693 420.183 228.081 420.183C227.468 420.183 226.87 420.008 226.447 419.615C226.024 419.235 225.849 418.652 225.849 418.054C225.849 417.456 226.024 416.873 226.447 416.479C226.87 416.085 227.468 415.91 228.081 415.91C228.693 415.91 229.291 416.085 229.699 416.479C230.122 416.873 230.297 417.456 230.297 418.054C230.297 418.652 230.122 419.235 229.699 419.615ZM239.008 417.937V414.875H237.929V417.937H234.181L237.696 410.5H236.558L233.044 417.937V418.973H237.929V421H239.008V418.973H240.16V417.937H239.008Z" fill="white"/>
</svg>
