<svg width="520" height="450" viewBox="0 0 520 450" fill="none" xmlns="http://www.w3.org/2000/svg">
<circle cx="260" cy="225" r="225" fill="#739790"/>
<path d="M209.858 240.825H184.358L209.858 210.675V205.5H177.008V210.675H202.508L177.008 240.9V246H209.858V240.825ZM221.591 227.55H254.141C254.441 221.25 253.241 215.4 249.716 210.9C246.116 206.55 240.866 204.375 235.091 204.375C229.241 204.375 223.991 206.55 220.466 210.9C217.091 215.175 215.891 220.575 215.891 225.9C215.891 231 217.091 236.25 220.466 240.525C223.841 244.875 229.466 247.125 235.241 247.125C242.741 247.125 249.191 243.825 252.791 237L248.591 234.3C245.441 239.7 240.791 242.1 235.091 242.1C230.966 242.1 226.991 240.45 224.666 237.3C222.641 234.6 221.816 231.15 221.591 227.55ZM235.091 209.4C239.141 209.325 243.041 210.975 245.366 214.125C247.091 216.3 247.991 219.225 248.366 222.45H221.666C222.041 219.375 222.941 216.45 224.666 214.125C226.991 210.975 230.966 209.325 235.091 209.4ZM289.813 207.75C286.438 205.05 282.313 204.3 278.338 204.6C274.738 204.75 270.913 206.025 268.213 208.8C267.463 209.55 266.788 210.375 266.263 211.2V205.5H261.313V246H266.863V225.15C266.863 223.05 266.938 221.1 267.313 219.375C267.838 216.6 269.113 214.125 271.063 212.4C272.863 210.75 275.338 209.85 277.963 209.775C280.963 209.625 283.663 210.375 285.838 211.95C289.888 214.95 290.563 220.2 290.563 226.5V246H296.113V226.35C296.188 219.15 295.438 211.95 289.813 207.75ZM306.641 192.15V198.3H312.116V192.15H306.641ZM306.641 205.5V246H312.116V205.5H306.641ZM333.073 210.225H345.448V205.5H333.073V194.25H327.523V205.5H318.898V210.225H327.523V231.3C327.523 235.125 327.598 238.125 328.948 240.975C330.448 244.05 333.148 245.7 336.748 246.3C339.373 246.825 342.748 246.675 345.448 246V241.05C343.348 241.5 340.873 241.575 338.773 241.35C336.673 241.125 334.798 240.075 333.898 238.2C332.923 236.475 333.073 234.45 333.073 231.075V210.225Z" fill="#F7F7F7"/>
<path d="M246.972 410.5L244.988 411.681V412.892L246.972 411.696V421H248.051V410.5H246.972ZM251.288 419.717C251.945 420.65 253.009 421.219 254.205 421.219C255.211 421.204 256.145 420.854 256.815 420.14C257.515 419.44 257.836 418.55 257.836 417.5V414.015C257.836 412.979 257.559 412.119 256.859 411.39C256.217 410.704 255.27 410.281 254.278 410.296C253.301 410.281 252.382 410.675 251.74 411.346C251.113 411.987 250.734 412.862 250.734 413.796C250.72 414.773 251.099 415.648 251.77 416.304C252.411 416.902 253.272 417.267 254.176 417.267C255.211 417.267 256.145 416.771 256.757 416.012V417.5C256.757 418.171 256.538 418.769 256.145 419.235C255.707 419.819 254.992 420.183 254.205 420.183C253.33 420.183 252.557 419.731 252.105 419.046L251.288 419.717ZM253.899 411.477C254.555 411.375 255.211 411.565 255.707 411.944C256.159 412.294 256.495 412.804 256.597 413.402C256.699 414.015 256.553 414.627 256.232 415.108C255.882 415.633 255.328 415.998 254.672 416.1C254.045 416.202 253.432 416.056 252.936 415.721C252.44 415.371 252.076 414.831 251.974 414.175C251.872 413.577 252.003 412.979 252.309 412.498C252.659 411.958 253.228 411.579 253.899 411.477ZM259.974 413.11C259.974 413.752 260.193 414.394 260.645 414.875C260.806 415.065 260.995 415.24 261.214 415.371C260.908 415.575 260.631 415.808 260.412 416.085C259.931 416.64 259.712 417.383 259.727 418.054C259.741 418.915 260.047 419.819 260.718 420.417C261.36 420.985 262.249 421.219 263.081 421.219C263.897 421.219 264.787 421 265.443 420.417C266.129 419.819 266.435 418.929 266.435 418.054C266.449 417.383 266.245 416.64 265.735 416.085C265.531 415.808 265.254 415.575 264.947 415.371C265.152 415.24 265.341 415.065 265.502 414.875C265.968 414.394 266.172 413.752 266.172 413.11C266.172 412.294 265.881 411.462 265.21 410.952C264.612 410.456 263.824 410.281 263.081 410.281C262.337 410.281 261.549 410.456 260.952 410.952C260.295 411.477 259.989 412.235 259.974 413.11ZM261.112 413.11C261.127 412.585 261.287 412.104 261.652 411.783C262.031 411.462 262.556 411.346 263.081 411.331C263.606 411.331 264.145 411.462 264.495 411.783C264.874 412.104 265.049 412.585 265.035 413.11C265.035 413.621 264.874 414.117 264.51 414.423C264.145 414.744 263.606 414.875 263.081 414.875C262.556 414.875 262.016 414.744 261.652 414.423C261.272 414.117 261.097 413.621 261.112 413.11ZM264.699 419.615C264.291 420.008 263.693 420.183 263.081 420.183C262.468 420.183 261.87 420.008 261.447 419.615C261.024 419.235 260.849 418.652 260.849 418.054C260.849 417.456 261.024 416.873 261.447 416.479C261.87 416.085 262.468 415.91 263.081 415.91C263.693 415.91 264.291 416.085 264.699 416.479C265.122 416.873 265.297 417.456 265.297 418.054C265.297 418.652 265.122 419.235 264.699 419.615ZM274.008 417.937V414.875H272.929V417.937H269.181L272.696 410.5H271.558L268.044 417.937V418.973H272.929V421H274.008V418.973H275.16V417.937H274.008Z" fill="white"/>
</svg>
