<svg width="520" height="520" viewBox="0 0 520 520" fill="none" xmlns="http://www.w3.org/2000/svg">
<g clip-path="url(#clip0)">
<path d="M379.032 260.025C379.032 328.185 325.717 383.378 260.024 383.378C194.331 383.378 141.016 328.185 141.016 260.025C141.016 191.865 194.331 136.671 260.024 136.671C325.717 136.671 379.032 191.865 379.032 260.025Z" fill="black" stroke="black" stroke-width="2"/>
<path d="M288.507 22.5461C290.923 28.2395 290.353 34.9962 287.05 42.4401C283.747 49.886 277.747 57.9254 269.483 66.0691C252.958 82.3521 227.532 98.9016 197.113 111.814C166.694 124.726 137.127 131.52 113.935 132.095C102.335 132.383 92.3846 131.115 84.7339 128.318C77.0853 125.523 71.8284 121.24 69.4117 115.546C66.995 109.853 67.5658 103.096 70.8681 95.6524C74.1713 88.2065 80.1709 80.1671 88.4355 72.0234C104.96 55.7404 130.387 39.1909 160.805 26.2788C191.224 13.3668 220.792 6.57286 243.984 5.99707C255.583 5.7091 265.534 6.97799 273.184 9.77422C280.833 12.5697 286.09 16.8527 288.507 22.5461Z" stroke="black" stroke-width="2"/>
<path d="M450.638 404.503C453.054 410.197 452.483 416.953 449.181 424.397C445.878 431.843 439.878 439.883 431.614 448.026C415.089 464.309 389.663 480.859 359.244 493.771C328.825 506.683 299.257 513.477 276.065 514.053C264.466 514.341 254.515 513.072 246.865 510.275C239.216 507.48 233.959 503.197 231.543 497.504C229.126 491.81 229.697 485.053 232.999 477.61C236.302 470.164 242.302 462.124 250.566 453.981C267.091 437.698 292.518 421.148 322.936 408.236C353.355 395.324 382.923 388.53 406.115 387.954C417.714 387.666 427.665 388.935 435.315 391.731C442.964 394.527 448.221 398.81 450.638 404.503Z" stroke="black" stroke-width="2"/>
<path d="M22.5459 231.543C28.2393 229.126 34.996 229.697 42.4399 232.999C49.8858 236.302 57.9252 242.302 66.0689 250.567C82.3519 267.091 98.9014 292.518 111.813 322.937C124.725 353.356 131.519 382.923 132.095 406.115C132.383 417.714 131.114 427.665 128.318 435.316C125.523 442.964 121.24 448.221 115.546 450.638C109.853 453.055 103.096 452.484 95.6522 449.181C88.2063 445.878 80.1669 439.879 72.0232 431.614C55.7402 415.089 39.1907 389.663 26.2786 359.244C13.3666 328.825 6.57265 299.258 5.99687 276.066C5.70889 264.467 6.97779 254.516 9.77401 246.865C12.5695 239.217 16.8525 233.96 22.5459 231.543Z" stroke="black" stroke-width="2"/>
<path d="M404.503 69.4117C410.196 66.995 416.953 67.5658 424.397 70.8681C431.843 74.1713 439.882 80.1709 448.026 88.4355C464.309 104.96 480.858 130.387 493.77 160.806C506.683 191.224 513.476 220.792 514.052 243.984C514.34 255.583 513.071 265.534 510.275 273.184C507.48 280.833 503.197 286.09 497.503 288.507C491.81 290.923 485.053 290.353 477.609 287.05C470.163 283.747 462.124 277.747 453.98 269.483C437.697 252.958 421.148 227.532 408.236 197.113C395.324 166.694 388.53 137.127 387.954 113.935C387.666 102.335 388.935 92.3846 391.731 84.7339C394.527 77.0853 398.81 71.8284 404.503 69.4117Z" stroke="black" stroke-width="2"/>
<path d="M204.035 270.9L219.747 248.1V246H201.335V248.1H217.047L201.335 270.9V273H219.747V270.9H204.035ZM246.419 248.1V246H230.032V273H246.419V270.9H232.207V260.55H244.169V258.45H232.207V248.1H246.419ZM259.228 246H257.053V273H259.228V249.825L274.865 273H277.04V246H274.865V269.137L259.228 246ZM288.07 246V273H290.245V246H288.07ZM320.524 246H299.036V248.1H308.711V273H310.886V248.1H320.524V246Z" fill="white"/>
</g>
<defs>
<clipPath id="clip0">
<rect width="520" height="520" fill="white"/>
</clipPath>
</defs>
</svg>
