<svg width="520" height="520" viewBox="0 0 520 520" fill="none" xmlns="http://www.w3.org/2000/svg">
<circle cx="260" cy="260" r="260" fill="#739790"/>
<path d="M213.413 268.989H184.763L213.413 235.164V231.789H180.488V235.089H209.138L180.488 268.989V272.289H213.413V268.989ZM237.966 270.264C233.391 270.264 228.966 268.464 226.341 264.939C223.866 261.639 222.966 257.289 222.816 252.939H256.416C256.416 247.164 255.366 241.389 252.141 237.114C248.691 232.764 243.666 230.664 237.966 230.664C232.266 230.664 227.241 232.764 223.791 237.114C220.416 241.539 219.441 246.939 219.441 252.039C219.441 257.064 220.416 262.539 223.791 266.889C227.091 271.164 232.341 273.414 237.966 273.414C245.016 273.414 251.766 270.414 255.441 262.614L252.816 261.114C249.591 267.714 243.966 270.264 237.966 270.264ZM226.341 239.139C228.966 235.614 233.391 233.739 237.966 233.814C242.466 233.739 246.891 235.614 249.516 239.139C251.691 241.989 252.666 245.589 252.966 249.789H222.891C223.116 245.889 224.166 242.064 226.341 239.139ZM289.552 233.514C286.402 231.414 282.652 230.664 279.127 230.964C275.527 231.114 271.852 232.389 269.152 234.939C268.102 235.989 267.202 237.114 266.452 238.389V231.789H263.527V272.289H266.677V250.014C266.677 248.289 266.827 246.639 267.202 244.989C267.727 241.989 269.077 239.139 271.252 237.189C273.352 235.164 276.277 234.114 279.277 233.964C282.352 233.814 285.352 234.489 287.827 236.064C292.927 239.514 293.602 245.289 293.602 252.564V272.289H296.752V252.564C296.902 244.914 295.702 237.714 289.552 233.514ZM307.238 219.039V223.839H310.388V219.039H307.238ZM307.238 231.789V272.289H310.388V231.789H307.238ZM329.78 234.939H342.53V231.789H329.78V220.539H326.63V231.789H317.105V234.939H326.63V258.864C326.63 262.389 326.555 264.939 327.755 267.564C329.18 270.639 331.88 272.214 335.405 272.664C337.805 272.964 340.13 272.814 342.53 272.289V269.289C340.505 269.739 338.03 269.814 335.78 269.589C333.455 269.364 331.43 268.164 330.605 266.139C329.555 264.264 329.78 262.389 329.78 258.864V234.939Z" fill="#F7F7F7"/>
<path d="M246.972 473.656L244.988 474.837V476.047L246.972 474.851V484.156H248.051V473.656H246.972ZM251.288 482.872C251.945 483.806 253.009 484.374 254.205 484.374C255.211 484.36 256.145 484.01 256.815 483.295C257.515 482.595 257.836 481.706 257.836 480.656V477.17C257.836 476.135 257.559 475.274 256.859 474.545C256.217 473.86 255.27 473.437 254.278 473.451C253.301 473.437 252.382 473.831 251.74 474.501C251.113 475.143 250.734 476.018 250.734 476.951C250.72 477.928 251.099 478.803 251.77 479.46C252.411 480.058 253.272 480.422 254.176 480.422C255.211 480.422 256.145 479.926 256.757 479.168V480.656C256.757 481.326 256.538 481.924 256.145 482.391C255.707 482.974 254.992 483.339 254.205 483.339C253.33 483.339 252.557 482.887 252.105 482.201L251.288 482.872ZM253.899 474.633C254.555 474.531 255.211 474.72 255.707 475.099C256.159 475.449 256.495 475.96 256.597 476.558C256.699 477.17 256.553 477.783 256.232 478.264C255.882 478.789 255.328 479.153 254.672 479.256C254.045 479.358 253.432 479.212 252.936 478.876C252.44 478.526 252.076 477.987 251.974 477.331C251.872 476.733 252.003 476.135 252.309 475.653C252.659 475.114 253.228 474.735 253.899 474.633ZM259.974 476.266C259.974 476.908 260.193 477.549 260.645 478.031C260.806 478.22 260.995 478.395 261.214 478.526C260.908 478.731 260.631 478.964 260.412 479.241C259.931 479.795 259.712 480.539 259.727 481.21C259.741 482.07 260.047 482.974 260.718 483.572C261.36 484.141 262.249 484.374 263.081 484.374C263.897 484.374 264.787 484.156 265.443 483.572C266.129 482.974 266.435 482.085 266.435 481.21C266.449 480.539 266.245 479.795 265.735 479.241C265.531 478.964 265.254 478.731 264.947 478.526C265.152 478.395 265.341 478.22 265.502 478.031C265.968 477.549 266.172 476.908 266.172 476.266C266.172 475.449 265.881 474.618 265.21 474.108C264.612 473.612 263.824 473.437 263.081 473.437C262.337 473.437 261.549 473.612 260.952 474.108C260.295 474.633 259.989 475.391 259.974 476.266ZM261.112 476.266C261.127 475.741 261.287 475.26 261.652 474.939C262.031 474.618 262.556 474.501 263.081 474.487C263.606 474.487 264.145 474.618 264.495 474.939C264.874 475.26 265.049 475.741 265.035 476.266C265.035 476.776 264.874 477.272 264.51 477.578C264.145 477.899 263.606 478.031 263.081 478.031C262.556 478.031 262.016 477.899 261.652 477.578C261.272 477.272 261.097 476.776 261.112 476.266ZM264.699 482.77C264.291 483.164 263.693 483.339 263.081 483.339C262.468 483.339 261.87 483.164 261.447 482.77C261.024 482.391 260.849 481.808 260.849 481.21C260.849 480.612 261.024 480.028 261.447 479.635C261.87 479.241 262.468 479.066 263.081 479.066C263.693 479.066 264.291 479.241 264.699 479.635C265.122 480.028 265.297 480.612 265.297 481.21C265.297 481.808 265.122 482.391 264.699 482.77ZM274.008 481.093V478.031H272.929V481.093H269.181L272.696 473.656H271.558L268.044 481.093V482.128H272.929V484.156H274.008V482.128H275.16V481.093H274.008Z" fill="white"/>
<path d="M255.631 36.0139L253.764 42.1243L251.883 36.0139H250.906L249.039 42.1243L247.173 36.0139H246.093L248.5 43.8889H249.433L251.402 37.6181L253.312 43.8889H254.289L256.696 36.0139H255.631ZM258.39 40.3014H264.719C264.777 39.0764 264.544 37.9389 263.859 37.0639C263.159 36.2181 262.138 35.7951 261.015 35.7951C259.877 35.7951 258.857 36.2181 258.171 37.0639C257.515 37.8951 257.282 38.9451 257.282 39.9806C257.282 40.9722 257.515 41.9931 258.171 42.8243C258.827 43.6701 259.921 44.1076 261.044 44.1076C262.502 44.1076 263.757 43.466 264.457 42.1389L263.64 41.6139C263.027 42.6639 262.123 43.1306 261.015 43.1306C260.213 43.1306 259.44 42.8097 258.988 42.1972C258.594 41.6722 258.434 41.0014 258.39 40.3014ZM261.015 36.7722C261.802 36.7576 262.561 37.0785 263.013 37.691C263.348 38.1139 263.523 38.6826 263.596 39.3097H258.404C258.477 38.7118 258.652 38.1431 258.988 37.691C259.44 37.0785 260.213 36.7576 261.015 36.7722ZM272.749 37.0639C272.122 36.2472 271.13 35.7951 270.066 35.7951C269.03 35.7951 268.053 36.2181 267.412 36.9326V33.3889H266.332V43.8889H267.295V42.7806C267.907 43.6556 268.884 44.1076 270.022 44.1076C271.101 44.1076 272.093 43.6701 272.749 42.8389C273.405 41.9931 273.609 40.9576 273.609 39.9368C273.609 38.9306 273.376 37.866 272.749 37.0639ZM271.889 42.1681C271.437 42.7951 270.678 43.116 269.905 43.116C269.132 43.116 268.389 42.8097 267.937 42.2264C267.47 41.6431 267.295 40.7826 267.295 39.9368C267.295 39.1056 267.47 38.2597 267.937 37.6618C268.389 37.0785 269.118 36.7868 269.891 36.7868C270.693 36.7868 271.422 37.0931 271.874 37.7201C272.312 38.3035 272.472 39.1201 272.472 39.9368C272.472 40.7681 272.326 41.5847 271.889 42.1681Z" fill="white"/>
</svg>
