<svg width="520" height="520" viewBox="0 0 520 520" fill="none" xmlns="http://www.w3.org/2000/svg">
<g clip-path="url(#clip0)">
<ellipse cx="260.024" cy="260.025" rx="120.008" ry="124.353" fill="#739790"/>
<ellipse cx="178.959" cy="69.0462" rx="120.008" ry="47.4608" transform="rotate(-23 178.959 69.0462)" fill="#739790"/>
<ellipse cx="341.09" cy="451.003" rx="120.008" ry="47.4608" transform="rotate(-23 341.09 451.003)" fill="#739790"/>
<ellipse cx="69.0461" cy="341.09" rx="120.008" ry="47.4608" transform="rotate(-113 69.0461 341.09)" fill="#739790"/>
<ellipse cx="451.003" cy="178.959" rx="120.008" ry="47.4608" transform="rotate(-113 451.003 178.959)" fill="#739790"/>
<path d="M218.59 277.067H193.123L218.59 247V244H189.323V246.933H214.79L189.323 277.067V280H218.59V277.067ZM240.415 278.2C236.348 278.2 232.415 276.6 230.081 273.467C227.881 270.533 227.081 266.667 226.948 262.8H256.815C256.815 257.667 255.881 252.533 253.015 248.733C249.948 244.867 245.481 243 240.415 243C235.348 243 230.881 244.867 227.815 248.733C224.815 252.667 223.948 257.467 223.948 262C223.948 266.467 224.815 271.333 227.815 275.2C230.748 279 235.415 281 240.415 281C246.681 281 252.681 278.333 255.948 271.4L253.615 270.067C250.748 275.933 245.748 278.2 240.415 278.2ZM230.081 250.533C232.415 247.4 236.348 245.733 240.415 245.8C244.415 245.733 248.348 247.4 250.681 250.533C252.615 253.067 253.481 256.267 253.748 260H227.015C227.215 256.533 228.148 253.133 230.081 250.533ZM286.269 245.533C283.469 243.667 280.135 243 277.002 243.267C273.802 243.4 270.535 244.533 268.135 246.8C267.202 247.733 266.402 248.733 265.735 249.867V244H263.135V280H265.935V260.2C265.935 258.667 266.069 257.2 266.402 255.733C266.869 253.067 268.069 250.533 270.002 248.8C271.869 247 274.469 246.067 277.135 245.933C279.869 245.8 282.535 246.4 284.735 247.8C289.269 250.867 289.869 256 289.869 262.467V280H292.669V262.467C292.802 255.667 291.735 249.267 286.269 245.533ZM301.99 232.667V236.933H304.79V232.667H301.99ZM301.99 244V280H304.79V244H301.99ZM322.027 246.8H333.36V244H322.027V234H319.227V244H310.76V246.8H319.227V268.067C319.227 271.2 319.16 273.467 320.227 275.8C321.494 278.533 323.894 279.933 327.027 280.333C329.16 280.6 331.227 280.467 333.36 280V277.333C331.56 277.733 329.36 277.8 327.36 277.6C325.294 277.4 323.494 276.333 322.76 274.533C321.827 272.867 322.027 271.2 322.027 268.067V246.8Z" fill="#F7F7F7"/>
</g>
<defs>
<clipPath id="clip0">
<rect width="520" height="520" fill="white"/>
</clipPath>
</defs>
</svg>
